<svg width="164" height="35" viewBox="0 0 164 35" fill="none" xmlns="http://www.w3.org/2000/svg">
<path d="M15.4787 8.34801C15.3764 7.31676 14.9375 6.51562 14.1619 5.9446C13.3864 5.37358 12.3338 5.08807 11.0043 5.08807C10.1009 5.08807 9.33807 5.21591 8.71591 5.47159C8.09375 5.71875 7.61648 6.06392 7.28409 6.5071C6.96023 6.95028 6.7983 7.45312 6.7983 8.01562C6.78125 8.48438 6.87926 8.89347 7.09233 9.2429C7.31392 9.59233 7.61648 9.89489 8 10.1506C8.38352 10.3977 8.8267 10.6151 9.32955 10.8026C9.83239 10.9815 10.3693 11.1349 10.9403 11.2628L13.2926 11.8253C14.4347 12.081 15.483 12.4219 16.4375 12.848C17.392 13.2741 18.2188 13.7983 18.9176 14.4205C19.6165 15.0426 20.1577 15.7756 20.5412 16.6193C20.9332 17.4631 21.1335 18.4304 21.142 19.5213C21.1335 21.1236 20.7244 22.5128 19.9148 23.6889C19.1136 24.8565 17.9545 25.7642 16.4375 26.4119C14.929 27.0511 13.1094 27.3707 10.9787 27.3707C8.86506 27.3707 7.02415 27.0469 5.45597 26.3991C3.89631 25.7514 2.67756 24.7926 1.79972 23.5227C0.930398 22.2443 0.474432 20.6634 0.431818 18.7798H5.78835C5.84801 19.6577 6.09943 20.3906 6.54261 20.9787C6.99432 21.5582 7.59517 21.9972 8.34517 22.2955C9.10369 22.5852 9.96023 22.7301 10.9148 22.7301C11.8523 22.7301 12.6662 22.5937 13.3565 22.321C14.0554 22.0483 14.5966 21.669 14.9801 21.1832C15.3636 20.6974 15.5554 20.1392 15.5554 19.5085C15.5554 18.9205 15.3807 18.4261 15.0312 18.0256C14.6903 17.625 14.1875 17.2841 13.5227 17.0028C12.8665 16.7216 12.0611 16.4659 11.1065 16.2358L8.25568 15.5199C6.0483 14.983 4.3054 14.1435 3.02699 13.0014C1.74858 11.8594 1.11364 10.321 1.12216 8.38636C1.11364 6.80114 1.53551 5.41619 2.38778 4.23153C3.24858 3.04687 4.42898 2.12216 5.92898 1.45739C7.42898 0.792613 9.13352 0.460226 11.0426 0.460226C12.9858 0.460226 14.6818 0.792613 16.1307 1.45739C17.5881 2.12216 18.7216 3.04687 19.5312 4.23153C20.3409 5.41619 20.7585 6.78835 20.7841 8.34801H15.4787ZM24.8654 27V0.818181H35.3484C37.2745 0.818181 38.881 1.10369 40.168 1.67472C41.4549 2.24574 42.4222 3.03835 43.07 4.05256C43.7177 5.05824 44.0415 6.21733 44.0415 7.52983C44.0415 8.55256 43.837 9.4517 43.4279 10.2273C43.0188 10.9943 42.4563 11.625 41.7404 12.1193C41.033 12.6051 40.2234 12.9503 39.3114 13.1548V13.4105C40.3086 13.4531 41.2418 13.7344 42.1112 14.2543C42.989 14.7741 43.7006 15.5028 44.2461 16.4403C44.7915 17.3693 45.0643 18.4773 45.0643 19.7642C45.0643 21.1534 44.7191 22.3935 44.0288 23.4844C43.3469 24.5668 42.337 25.4233 40.9989 26.054C39.6609 26.6847 38.0117 27 36.0515 27H24.8654ZM30.4009 22.4744H34.9137C36.4563 22.4744 37.5813 22.1804 38.2887 21.5923C38.9961 20.9957 39.3498 20.2031 39.3498 19.2145C39.3498 18.4901 39.1751 17.8509 38.8256 17.2969C38.4762 16.7429 37.9776 16.3082 37.3299 15.9929C36.6907 15.6776 35.9279 15.5199 35.0415 15.5199H30.4009V22.4744ZM30.4009 11.7741H34.5046C35.2631 11.7741 35.9364 11.642 36.5245 11.3778C37.1211 11.1051 37.5898 10.7216 37.9308 10.2273C38.2802 9.73295 38.4549 9.14062 38.4549 8.45028C38.4549 7.50426 38.1183 6.74148 37.445 6.16193C36.7802 5.58239 35.8342 5.29261 34.6069 5.29261H30.4009V11.7741ZM61.1562 18.6392V7.36364H66.6023V27H61.3736V23.4332H61.169C60.7259 24.5838 59.9886 25.5085 58.9574 26.2074C57.9347 26.9062 56.6861 27.2557 55.2116 27.2557C53.8991 27.2557 52.7443 26.9574 51.7472 26.3608C50.75 25.7642 49.9702 24.9162 49.4077 23.8168C48.8537 22.7173 48.5724 21.4006 48.5639 19.8665V7.36364H54.0099V18.8949C54.0185 20.054 54.3295 20.9702 54.9432 21.6435C55.5568 22.3168 56.3793 22.6534 57.4105 22.6534C58.0668 22.6534 58.6804 22.5043 59.2514 22.206C59.8224 21.8991 60.2827 21.4474 60.6321 20.8509C60.9901 20.2543 61.1648 19.517 61.1562 18.6392ZM70.9585 27V7.36364H76.2383V10.7898H76.4428C76.8008 9.57102 77.4016 8.65057 78.2454 8.02841C79.0891 7.39773 80.0607 7.08239 81.1602 7.08239C81.4329 7.08239 81.7269 7.09943 82.0423 7.13352C82.3576 7.16761 82.6346 7.21449 82.8732 7.27415V12.1065C82.6175 12.0298 82.2639 11.9616 81.8121 11.902C81.3604 11.8423 80.9471 11.8125 80.5721 11.8125C79.771 11.8125 79.055 11.9872 78.4244 12.3366C77.8022 12.6776 77.3079 13.1548 76.9414 13.7685C76.5835 14.3821 76.4045 15.0895 76.4045 15.8906V27H70.9585ZM93.6214 34.7727C91.8572 34.7727 90.3445 34.5298 89.0831 34.044C87.8303 33.5668 86.8331 32.9148 86.0916 32.0881C85.3501 31.2614 84.8686 30.3324 84.647 29.3011L89.6839 28.6236C89.8374 29.0156 90.0803 29.3821 90.4126 29.723C90.745 30.0639 91.1839 30.3366 91.7294 30.5412C92.2834 30.7543 92.9567 30.8608 93.7493 30.8608C94.9339 30.8608 95.9098 30.571 96.6768 29.9915C97.4524 29.4205 97.8402 28.4616 97.8402 27.1151V23.5227H97.6101C97.3714 24.0682 97.0135 24.5838 96.5362 25.0696C96.0589 25.5554 95.4453 25.9517 94.6953 26.2585C93.9453 26.5653 93.0504 26.7188 92.0107 26.7188C90.5362 26.7188 89.1939 26.3778 87.9837 25.696C86.782 25.0057 85.8232 23.9531 85.1072 22.5384C84.3999 21.1151 84.0462 19.3168 84.0462 17.1435C84.0462 14.919 84.4084 13.0611 85.1328 11.5696C85.8572 10.0781 86.8203 8.96165 88.022 8.22017C89.2322 7.47869 90.5575 7.10795 91.9979 7.10795C93.0973 7.10795 94.0178 7.29545 94.7592 7.67045C95.5007 8.03693 96.0973 8.49716 96.549 9.05114C97.0092 9.59659 97.3629 10.1335 97.6101 10.6619H97.8146V7.36364H103.222V27.1918C103.222 28.8622 102.813 30.2599 101.995 31.3849C101.177 32.5099 100.043 33.3537 98.5945 33.9162C97.1541 34.4872 95.4964 34.7727 93.6214 34.7727ZM93.7365 22.6278C94.6143 22.6278 95.3558 22.4105 95.9609 21.9759C96.5746 21.5327 97.0433 20.902 97.3672 20.0838C97.6996 19.2571 97.8658 18.2685 97.8658 17.1179C97.8658 15.9673 97.7038 14.9702 97.38 14.1264C97.0561 13.2741 96.5874 12.6136 95.9737 12.1449C95.3601 11.6761 94.6143 11.4418 93.7365 11.4418C92.8416 11.4418 92.0874 11.6847 91.4737 12.1705C90.8601 12.6477 90.3956 13.3125 90.0803 14.1648C89.7649 15.017 89.6072 16.0014 89.6072 17.1179C89.6072 18.2514 89.7649 19.2315 90.0803 20.0582C90.4041 20.8764 90.8686 21.5114 91.4737 21.9631C92.0874 22.4062 92.8416 22.6278 93.7365 22.6278ZM120.148 18.6392V7.36364H125.594V27H120.366V23.4332H120.161C119.718 24.5838 118.981 25.5085 117.95 26.2074C116.927 26.9062 115.678 27.2557 114.204 27.2557C112.891 27.2557 111.737 26.9574 110.739 26.3608C109.742 25.7642 108.962 24.9162 108.4 23.8168C107.846 22.7173 107.565 21.4006 107.556 19.8665V7.36364H113.002V18.8949C113.011 20.054 113.322 20.9702 113.935 21.6435C114.549 22.3168 115.371 22.6534 116.403 22.6534C117.059 22.6534 117.673 22.5043 118.244 22.206C118.815 21.8991 119.275 21.4474 119.624 20.8509C119.982 20.2543 120.157 19.517 120.148 18.6392ZM138.9 27.3835C136.88 27.3835 135.141 26.9744 133.684 26.1562C132.235 25.3295 131.118 24.1619 130.334 22.6534C129.55 21.1364 129.158 19.3423 129.158 17.2713C129.158 15.2514 129.55 13.4787 130.334 11.9531C131.118 10.4276 132.222 9.23864 133.645 8.38636C135.077 7.53409 136.756 7.10795 138.682 7.10795C139.978 7.10795 141.184 7.31676 142.3 7.73438C143.425 8.14347 144.405 8.76136 145.24 9.58807C146.084 10.4148 146.74 11.4545 147.209 12.7074C147.678 13.9517 147.912 15.4091 147.912 17.0795V18.5753H131.331V15.2003H142.786C142.786 14.4162 142.615 13.7216 142.275 13.1165C141.934 12.5114 141.461 12.0384 140.855 11.6974C140.259 11.348 139.564 11.1733 138.772 11.1733C137.945 11.1733 137.212 11.3651 136.573 11.7486C135.942 12.1236 135.448 12.6307 135.09 13.2699C134.732 13.9006 134.549 14.6037 134.54 15.3793V18.5881C134.54 19.5597 134.719 20.3991 135.077 21.1065C135.444 21.8139 135.959 22.3594 136.624 22.7429C137.289 23.1264 138.077 23.3182 138.989 23.3182C139.594 23.3182 140.148 23.233 140.651 23.0625C141.154 22.892 141.584 22.6364 141.942 22.2955C142.3 21.9545 142.573 21.5369 142.76 21.0426L147.797 21.375C147.542 22.5852 147.017 23.642 146.225 24.5455C145.441 25.4403 144.426 26.1392 143.182 26.642C141.946 27.1364 140.519 27.3835 138.9 27.3835ZM151.466 27V7.36364H156.746V10.7898H156.951C157.309 9.57102 157.909 8.65057 158.753 8.02841C159.597 7.39773 160.569 7.08239 161.668 7.08239C161.941 7.08239 162.235 7.09943 162.55 7.13352C162.865 7.16761 163.142 7.21449 163.381 7.27415V12.1065C163.125 12.0298 162.772 11.9616 162.32 11.902C161.868 11.8423 161.455 11.8125 161.08 11.8125C160.279 11.8125 159.563 11.9872 158.932 12.3366C158.31 12.6776 157.816 13.1548 157.449 13.7685C157.091 14.3821 156.912 15.0895 156.912 15.8906V27H151.466Z" fill="#333333"/>
</svg>
